<?xml version="1.0" encoding="UTF-8" standalone="no"?>
<svg
   width="433.19647"
   height="168.45807"
   viewBox="0 0 114.0014 44.331071"
   version="1.1"
   id="svg1"
   xmlns="http://www.w3.org/2000/svg"
   xmlns:svg="http://www.w3.org/2000/svg">
  <defs
     id="defs1" />
  <g
     id="text1"
     style="font-size:21.7394px;font-family:Arial;-inkscape-font-specification:Arial;fill:#ffffff;stroke-width:0.815226"
     aria-label="Břevnovský&#10;klášter"
     transform="translate(-7.4502556,-2.5827684)">
    <path
       style="font-weight:bold;font-family:Satoshi;-inkscape-font-specification:'Satoshi Bold'"
       d="m 7.7980857,18.756372 h 6.4348623 c 3.28265,0 5.173978,-1.586976 5.173978,-4.304401 0,-1.847849 -0.847837,-3.108734 -2.521771,-3.652219 1.500019,-0.630443 2.282637,-1.8913281 2.282637,-3.6522196 0,-2.6522069 -1.913067,-4.282662 -5.043541,-4.282662 H 7.7980857 Z M 13.885118,5.3214227 c 1.565237,0 2.434813,0.7391396 2.434813,2.1087219 0,1.4130611 -0.847837,2.2174189 -2.369595,2.2174189 H 10.580729 V 5.3214227 Z m 0.239133,6.6739963 c 1.543498,0 2.434813,0.760879 2.434813,2.108722 0,1.4348 -0.869576,2.195679 -2.434813,2.195679 h -3.543522 v -4.304401 z m 9.261007,-5.304414 h 2.717425 L 28.059229,3.2996584 H 25.972246 L 24.7331,5.4518591 23.493955,3.2996584 h -2.086983 z m 4.913104,1.2826246 c -0.434788,-0.108697 -0.804358,-0.1521758 -1.173927,-0.1521758 -1.434801,0 -2.456553,0.7174002 -2.91308,1.7826309 L 24.059179,8.0388478 H 21.559148 V 18.756372 h 2.652207 v -5.217456 c 0,-2.086982 1.195667,-3.108734 3.108734,-3.108734 h 0.978273 z m 6.239196,11.0653554 c 2.804383,0 4.760929,-1.413061 5.217456,-3.760917 h -2.456552 c -0.304352,1.021752 -1.260885,1.586977 -2.717425,1.586977 -1.760892,0 -2.760904,-0.956534 -2.956559,-2.847862 l 8.087058,-0.02174 v -0.804358 c 0,-3.3478679 -2.043504,-5.5000686 -5.260935,-5.5000686 -3.152214,0 -5.347893,2.3261156 -5.347893,5.6957226 0,3.326129 2.239158,5.652245 5.43485,5.652246 z M 34.47234,9.8649575 c 1.586976,0 2.608728,0.9782735 2.608728,2.4565525 h -5.391371 c 0.260872,-1.608716 1.217406,-2.4565525 2.782643,-2.4565525 z m 9.956628,8.8914145 h 2.608729 L 51.516013,8.0171084 H 48.776849 L 46.820303,12.951952 C 46.363775,14.12588 45.972466,15.256329 45.82029,15.93025 45.689854,15.343287 45.320284,14.234577 44.863756,12.951952 L 42.994168,8.0171084 h -2.826122 z m 11.260997,0 v -5.78268 c 0,-1.739152 1.000012,-2.869601 2.630467,-2.869601 1.369583,0 2.260898,0.869576 2.260898,2.673946 v 5.978335 h 2.652207 v -6.608777 c 0,-2.7826437 -1.391322,-4.4565776 -4.087007,-4.4565776 -1.45654,0 -2.760904,0.6304426 -3.434826,1.7174127 L 55.49431,8.0171084 H 53.037758 V 18.756372 Z m 9.521874,-5.391371 c 0,3.347868 2.413073,5.652244 5.739202,5.652244 3.326128,0 5.739201,-2.304376 5.739201,-5.652244 0,-3.347868 -2.413073,-5.6522442 -5.739201,-5.6522442 -3.326129,0 -5.739202,2.3043762 -5.739202,5.6522442 z m 2.652207,0 c 0,-1.956546 1.260885,-3.282649 3.086995,-3.282649 1.826109,0 3.086995,1.326103 3.086995,3.282649 0,1.956546 -1.260886,3.28265 -3.086995,3.28265 -1.82611,0 -3.086995,-1.326104 -3.086995,-3.28265 z m 13.4567,5.391371 h 2.608728 L 88.40779,8.0171084 H 85.668626 L 83.71208,12.951952 c -0.456528,1.173928 -0.847837,2.304377 -1.000013,2.978298 -0.130436,-0.586963 -0.500006,-1.695673 -0.956533,-2.978298 L 79.885945,8.0171084 h -2.826122 z m 7.543564,-3.26091 c 0,2.108722 1.695673,3.543523 4.369619,3.543523 2.652207,0 4.500056,-1.347843 4.500056,-3.521783 0,-1.652195 -0.913055,-2.478292 -2.717425,-2.891341 l -1.934807,-0.456527 c -0.913054,-0.217394 -1.391321,-0.608703 -1.391321,-1.217406 0,-0.804358 0.608703,-1.2826251 1.652194,-1.2826251 1.021752,0 1.630455,0.5869641 1.652195,1.5000191 h 2.52177 c -0.02174,-2.0869829 -1.652194,-3.4783046 -4.065268,-3.4783046 -2.478291,0 -4.260922,1.2608853 -4.260922,3.3696076 0,1.717412 0.934794,2.630467 2.869601,3.065255 l 1.934806,0.456527 c 0.956534,0.217394 1.239146,0.608704 1.239146,1.152189 0,0.782618 -0.673921,1.282624 -1.913067,1.282624 -1.217407,0 -1.913067,-0.586963 -1.934807,-1.521758 z m 13.56537,3.26091 v -2.89134 l 1.56524,-1.630455 2.80438,4.521795 h 3.04352 l -4.00005,-6.478341 4.08701,-4.2609226 h -3.32613 l -4.17397,4.5000556 V 2.5822582 H 99.799216 V 18.756372 Z M 119.06032,3.5170524 h -2.45655 l -1.63046,3.2174314 h 1.95655 z m -8.54358,20.2176426 c 0.58696,0.152176 1.23914,0.239134 1.97828,0.239134 1.76089,0 2.89134,-0.826098 3.6957,-2.826122 l 5.26093,-13.1305986 h -2.73916 l -2.91308,7.8261846 -2.7609,-7.8261846 h -2.80439 l 4.32614,11.1957916 -0.30435,0.804358 c -0.45652,1.260885 -1.10871,1.500018 -2.1522,1.500018 h -1.58697 z"
       id="path2" />
    <path
       style="font-weight:bold;font-family:Satoshi;-inkscape-font-specification:'Satoshi Bold'"
       d="m 10.080723,46.631623 v -2.89134 l 1.565237,-1.630455 2.804382,4.521795 h 3.043517 l -4.00005,-6.478341 4.087007,-4.260923 h -3.326128 l -4.173965,4.500056 V 30.457509 H 7.4502553 v 16.174114 z m 11.6958,0 V 30.457509 h -2.630468 v 16.174114 z m 10.652295,-15.23932 h -2.456553 l -1.630455,3.217431 h 1.956546 z m -4.673971,15.521932 c 1.673933,0 3.130473,-0.760879 3.587001,-1.869588 l 0.195654,1.586976 h 2.326116 v -6.52182 c 0,-2.978298 -1.782631,-4.543535 -4.673971,-4.543535 -2.91308,0 -4.826147,1.521758 -4.826147,3.847874 h 2.260898 c 0,-1.130449 0.869576,-1.782631 2.434813,-1.782631 1.347842,0 2.217418,0.586964 2.217418,2.043504 v 0.239133 l -3.217431,0.239134 c -2.54351,0.195654 -3.97831,1.4348 -3.97831,3.413086 0,2.021764 1.391321,3.347867 3.673959,3.347867 z m 0.869576,-2.000025 c -1.195667,0 -1.84785,-0.478266 -1.84785,-1.456539 0,-0.869576 0.630443,-1.413062 2.282638,-1.565237 l 2.239158,-0.173916 v 0.565225 c 0,1.652194 -1.043491,2.630467 -2.673946,2.630467 z M 38.885427,34.41408 h 2.695685 l 1.978286,-3.391347 h -2.086983 l -1.239146,2.152201 -1.239145,-2.152201 h -2.086983 z m -3.239171,8.956633 c 0,2.108722 1.695673,3.543522 4.369619,3.543522 2.652207,0 4.500056,-1.347843 4.500056,-3.521783 0,-1.652194 -0.913054,-2.478291 -2.717425,-2.89134 L 39.8637,40.044585 c -0.913055,-0.217394 -1.391322,-0.608704 -1.391322,-1.217407 0,-0.804358 0.608703,-1.282624 1.652194,-1.282624 1.021752,0 1.630455,0.586963 1.652195,1.500018 h 2.52177 c -0.02174,-2.086982 -1.652194,-3.478304 -4.065268,-3.478304 -2.478291,0 -4.260922,1.260885 -4.260922,3.369607 0,1.717413 0.934794,2.630468 2.869601,3.065256 l 1.934806,0.456527 c 0.956534,0.217394 1.239146,0.608703 1.239146,1.152188 0,0.782619 -0.673921,1.282625 -1.913067,1.282625 -1.217406,0 -1.913067,-0.586964 -1.934807,-1.521758 z m 14.543645,3.26091 v -8.521845 h 2.086982 v -2.217419 h -2.086982 v -3.347868 h -2.652207 v 3.347868 h -2.065243 v 2.217419 h 2.065243 v 8.521845 z m 8.434911,0.282612 c 2.804382,0 4.760929,-1.413061 5.217456,-3.760916 h -2.456552 c -0.304352,1.021752 -1.260886,1.586976 -2.717425,1.586976 -1.760892,0 -2.760904,-0.956533 -2.956559,-2.847861 l 8.087057,-0.02174 v -0.804358 c 0,-3.347867 -2.043504,-5.500068 -5.260935,-5.500068 -3.152213,0 -5.347892,2.326116 -5.347892,5.695723 0,3.326128 2.239158,5.652244 5.43485,5.652244 z m -0.06522,-9.174027 c 1.586976,0 2.608728,0.978273 2.608728,2.456552 h -5.39137 c 0.260873,-1.608715 1.217407,-2.456552 2.782644,-2.456552 z M 72.668448,35.84888 C 72.23366,35.740183 71.86409,35.696704 71.49452,35.696704 c -1.4348,0 -2.456552,0.717401 -2.913079,1.782631 l -0.152176,-1.565237 h -2.500031 v 10.717525 h 2.652207 v -5.217456 c 0,-2.086983 1.195667,-3.108734 3.108734,-3.108734 h 0.978273 z"
       id="path3" />
  </g>
</svg>
