<svg xmlns="http://www.w3.org/2000/svg" width="490" height="190" viewBox="0 0 128.95 50"><path d="M322.32 168.16h.85c.44 0 .69-.22.69-.58 0-.24-.12-.4-.34-.48.2-.08.3-.25.3-.48 0-.36-.25-.57-.66-.57h-.84zm.8-1.79c.21 0 .33.1.33.28 0 .19-.12.3-.32.3h-.44v-.58zm.04.89c.2 0 .32.1.32.28 0 .19-.12.29-.32.29h-.47v-.57zm1.22-.7h.36l.26-.46h-.27l-.17.29-.16-.29h-.28zm.66.16a.63.63 0 0 0-.16-.02c-.19 0-.33.1-.39.24l-.02-.2h-.33v1.42h.35v-.7c0-.27.16-.4.42-.4h.13zm.82 1.47c.38 0 .63-.18.7-.5h-.33c-.04.14-.17.21-.36.21-.23 0-.37-.12-.4-.37h1.08v-.11c0-.45-.27-.73-.7-.73-.42 0-.7.3-.7.75 0 .44.29.75.71.75zm0-1.21c.2 0 .34.13.34.32h-.71c.03-.21.16-.32.36-.32zm1.32 1.18h.34l.6-1.43h-.37l-.26.66-.13.39a4.27 4.27 0 0 0-.13-.4l-.25-.65h-.37zm1.49 0v-.77c0-.23.13-.38.35-.38.18 0 .3.11.3.35v.8h.35v-.88c0-.37-.19-.6-.54-.6-.2 0-.37.1-.46.24l-.03-.19h-.32v1.43zm1.26-.72c0 .44.32.75.76.75s.76-.3.76-.75c0-.44-.32-.75-.76-.75s-.76.3-.76.75zm.35 0c0-.26.17-.44.41-.44.25 0 .41.18.41.44s-.16.44-.4.44c-.25 0-.42-.18-.42-.44zm1.79.72h.34l.6-1.43h-.36l-.26.66c-.06.15-.12.3-.14.39a4.27 4.27 0 0 0-.12-.4l-.25-.65h-.38zm1-.44c0 .28.22.47.58.47.35 0 .6-.18.6-.46 0-.22-.13-.33-.37-.39l-.25-.06c-.12-.03-.19-.08-.19-.16 0-.1.08-.17.22-.17s.22.08.22.2h.34c0-.28-.22-.46-.54-.46-.33 0-.57.16-.57.44 0 .23.13.35.38.41l.26.06c.13.03.16.08.16.15 0 .1-.09.17-.25.17s-.25-.07-.26-.2zm1.8.44v-.39l.2-.21.38.6h.4l-.53-.86.54-.57h-.44l-.55.6V166h-.35v2.15zm2.2-2.03h-.32l-.22.43h.26zm-1.13 2.69c.08.02.17.03.26.03.24 0 .39-.11.5-.38l.7-1.74h-.37l-.39 1.04-.36-1.04h-.38l.58 1.49-.04.1c-.06.17-.15.2-.29.2h-.2zm-10.1 3v-.38l.2-.22.37.6h.4l-.52-.86.54-.57h-.44l-.56.6v-1.32h-.34v2.15zm1.55 0v-2.15h-.35v2.15zm1.4-2.02h-.32l-.21.42h.26zm-.61 2.06c.22 0 .41-.1.47-.25l.03.2h.3v-.86c0-.4-.23-.6-.61-.6-.39 0-.64.2-.64.51h.3c0-.15.11-.23.32-.23.18 0 .3.07.3.27v.03l-.43.03c-.34.03-.53.19-.53.45 0 .27.19.45.49.45zm.11-.27c-.15 0-.24-.06-.24-.2 0-.1.08-.18.3-.2l.3-.02v.07c0 .22-.14.35-.36.35zm1.36-1.4h.36l.26-.44H330l-.17.28-.16-.28h-.28zm-.42 1.2c0 .28.22.47.57.47.36 0 .6-.18.6-.47 0-.22-.12-.33-.36-.38l-.26-.06c-.12-.03-.18-.09-.18-.17 0-.1.08-.17.22-.17.13 0 .22.08.22.2h.33c0-.27-.22-.46-.54-.46-.33 0-.56.17-.56.45 0 .23.12.35.38.4l.26.07c.12.02.16.08.16.15 0 .1-.09.17-.25.17-.17 0-.26-.08-.26-.2zm1.92.43v-1.13h.28v-.3h-.28v-.44h-.35v.44h-.27v.3h.27v1.13zm1.12.04c.38 0 .63-.2.7-.5h-.33c-.04.13-.17.2-.36.2-.23 0-.37-.12-.4-.37h1.08v-.1c0-.45-.27-.74-.7-.74-.42 0-.7.31-.7.76 0 .44.29.75.71.75zm0-1.22c.2 0 .34.13.34.33h-.71c.03-.22.16-.33.36-.33zm1.87-.25a.63.63 0 0 0-.16-.02c-.2 0-.33.1-.39.24l-.02-.21h-.33v1.42h.35v-.7c0-.27.16-.4.42-.4h.13z" aria-label="Břevnovský klášter" style="font-weight:700;font-size:2.88349px;font-family:Satoshi;-inkscape-font-specification:Satoshi;text-align:center;text-anchor:middle;white-space:pre;fill:gray" transform="matrix(8.552 0 0 8.552 -2756.37 -1419.67)"/></svg>