<?xml version="1.0" encoding="UTF-8"?>
<svg id="Vrstva_2" xmlns="http://www.w3.org/2000/svg" viewBox="0 0 300.65 79.66">
  <defs>
    <style>
      .cls-1 {
        fill: #e63135;
      }

      .cls-2 {
        fill: #fff;
      }
    </style>
  </defs>
  <g id="Vrstva_1-2" data-name="Vrstva_1">
    <polygon class="cls-2" points="241.34 20.65 7.45 .13 6.02 0 4.14 20.44 7.03 20.44 8.63 3.12 208.67 20.65 241.34 20.65"/>
    <g>
      <path class="cls-1" d="M0,24.55h10.75v34.88H0V24.55Z"/>
      <path class="cls-1" d="M15.1,24.55h10.99l10.16,18.66h.1v-18.66h10.16v34.88h-10.46l-10.7-19.05h-.1v19.05h-10.16V24.55Z"/>
      <path class="cls-2" d="M72.89,37.55c-.24-1.27-1.17-5.13-5.62-5.13-5.03,0-6.64,4.89-6.64,9.58s1.61,9.58,6.64,9.58c3.62,0,4.98-2.49,5.67-5.81h10.55c0,7.04-5.72,14.51-15.93,14.51-11.29,0-17.69-7.96-17.69-18.27,0-10.95,6.94-18.27,17.69-18.27,9.63.05,14.85,5.03,15.78,13.83h-10.46Z"/>
      <path class="cls-2" d="M96.44,24.55h10.5l12.7,34.88h-11.14l-1.47-4.98h-11.09l-1.56,4.98h-10.8l12.85-34.88ZM104.89,46.98l-3.13-10.75h-.1l-3.37,10.75h6.6Z"/>
      <path class="cls-2" d="M125.65,33.49h-9.77v-8.94h30.29v8.94h-9.77v25.94h-10.75v-25.94Z"/>
      <path class="cls-2" d="M148.91,24.55h28.88v8.94h-18.13v4.35h16.46v8.31h-16.46v4.35h18.66v8.94h-29.41V24.55Z"/>
      <path class="cls-2" d="M182.08,24.55h20.47c6.06,0,11.38,3.37,11.38,9.97,0,3.62-1.66,7.43-5.23,8.75,2.93,1.12,4.74,4.35,5.13,8.7.15,1.66.15,5.96,1.17,7.47h-10.75c-.54-1.76-.73-3.57-.88-5.37-.24-3.32-.59-6.79-4.84-6.79h-5.72v12.17h-10.75V24.55ZM192.83,39.8h5.62c2,0,4.74-.34,4.74-3.47,0-2.2-1.22-3.47-5.33-3.47h-5.03v6.94Z"/>
      <path class="cls-2" d="M217.06,24.55h10.75v34.88h-10.75V24.55Z"/>
      <path class="cls-2" d="M232.16,24.55h10.99l10.16,18.66h.1v-18.66h10.16v34.88h-10.46l-10.7-19.05h-.1v19.05h-10.16V24.55Z"/>
      <path class="cls-2" d="M293.52,55.87c-2.39,3.13-6.06,4.4-9.92,4.4-10.31,0-16.66-8.01-16.66-17.93,0-13.29,9.38-18.62,17.2-18.62,8.94,0,14.51,4.79,16.07,13.04h-10.31c-.39-2.54-2.54-4.35-5.08-4.35-7.38,0-7.13,7.77-7.13,10.16,0,3.27,1.37,8.99,7.87,8.99,2.49,0,5.03-1.27,5.57-3.86h-4.74v-7.48h14.27v19.2h-6.79l-.34-3.57Z"/>
    </g>
    <polygon class="cls-2" points="295.08 63.98 294.1 76.53 151.26 63.88 118.61 63.88 295.28 79.53 296.72 79.66 297.98 63.98 295.08 63.98"/>
  </g>
</svg>